HIERARCHY
ROOT Hips
{
  OFFSET -386.956 93.133 1387.47
  CHANNELS 6 Xposition Yposition Zposition Zrotation Xrotation Yrotation
  JOINT Spine
  {
    OFFSET 0 8 0
    CHANNELS 6 Xposition Yposition Zposition Zrotation Xrotation Yrotation
    JOINT Spine1
    {
      OFFSET 0 8 0
      CHANNELS 6 Xposition Yposition Zposition Zrotation Xrotation Yrotation
      JOINT Spine2
      {
        OFFSET 0 8 0
        CHANNELS 6 Xposition Yposition Zposition Zrotation Xrotation Yrotation
        JOINT Spine3
        {
          OFFSET 0 8 0
          CHANNELS 6 Xposition Yposition Zposition Zrotation Xrotation Yrotation
          JOINT Neck
          {
            OFFSET 0 17 0
            CHANNELS 6 Xposition Yposition Zposition Zrotation Xrotation Yrotation
            JOINT Head
            {
              OFFSET 0 10.8 0
              CHANNELS 6 Xposition Yposition Zposition Zrotation Xrotation Yrotation
              End Site
              {
                OFFSET 0 20.25 0
              }
            }
          }
          JOINT LeftShoulder
          {
            OFFSET 5 17 0
            CHANNELS 6 Xposition Yposition Zposition Zrotation Xrotation Yrotation
            JOINT LeftShoulder2
            {
              OFFSET 6.45 0 0
              CHANNELS 6 Xposition Yposition Zposition Zrotation Xrotation Yrotation
              JOINT LeftArm
              {
                OFFSET 6.45 0 0
                CHANNELS 6 Xposition Yposition Zposition Zrotation Xrotation Yrotation
                JOINT LeftForeArm
                {
                  OFFSET 0 -32.4 -2
                  CHANNELS 6 Xposition Yposition Zposition Zrotation Xrotation Yrotation
                  JOINT LeftHand
                  {
                    OFFSET 0 -25.65 2
                    CHANNELS 6 Xposition Yposition Zposition Zrotation Xrotation Yrotation
                    JOINT LeftHandThumb1
                    {
                      OFFSET -0.5 -1.5 2.65
                      CHANNELS 6 Xposition Yposition Zposition Zrotation Xrotation Yrotation
                      JOINT LeftHandThumb2
                      {
                        OFFSET 0 -3.8 3.7
                        CHANNELS 6 Xposition Yposition Zposition Zrotation Xrotation Yrotation
                        JOINT LeftHandThumb3
                        {
                          OFFSET 0 -3 2.7
                          CHANNELS 6 Xposition Yposition Zposition Zrotation Xrotation Yrotation
                          End Site
                          {
                            OFFSET 0 -2.3 1.8
                          }
                        }
                      }
                    }
                    JOINT LeftHandIndex
                    {
                      OFFSET 0 -1.9 1.6
                      CHANNELS 6 Xposition Yposition Zposition Zrotation Xrotation Yrotation
                      JOINT LeftHandIndex1
                      {
                        OFFSET 0 -8.3 1.9
                        CHANNELS 6 Xposition Yposition Zposition Zrotation Xrotation Yrotation
                        JOINT LeftHandIndex2
                        {
                          OFFSET 0 -4.5 0
                          CHANNELS 6 Xposition Yposition Zposition Zrotation Xrotation Yrotation
                          JOINT LeftHandIndex3
                          {
                            OFFSET 0 -3.4 0
                            CHANNELS 6 Xposition Yposition Zposition Zrotation Xrotation Yrotation
                            End Site
                            {
                              OFFSET 0 -2.6 0
                            }
                          }
                        }
                      }
                    }
                    JOINT LeftHandMiddle
                    {
                      OFFSET -0.25 -2.2 0.4
                      CHANNELS 6 Xposition Yposition Zposition Zrotation Xrotation Yrotation
                      JOINT LeftHandMiddle1
                      {
                        OFFSET 0 -8.3 1
                        CHANNELS 6 Xposition Yposition Zposition Zrotation Xrotation Yrotation
                        JOINT LeftHandMiddle2
                        {
                          OFFSET 0 -4.65 0
                          CHANNELS 6 Xposition Yposition Zposition Zrotation Xrotation Yrotation
                          JOINT LeftHandMiddle3
                          {
                            OFFSET 0 -3.3 0
                            CHANNELS 6 Xposition Yposition Zposition Zrotation Xrotation Yrotation
                            End Site
                            {
                              OFFSET 0 -2.7 0
                            }
                          }
                        }
                      }
                    }
                    JOINT LeftHandRing
                    {
                      OFFSET -0.5 -2.15 -0.8
                      CHANNELS 6 Xposition Yposition Zposition Zrotation Xrotation Yrotation
                      JOINT LeftHandRing1
                      {
                        OFFSET 0 -7.75 -0.2
                        CHANNELS 6 Xposition Yposition Zposition Zrotation Xrotation Yrotation
                        JOINT LeftHandRing2
                        {
                          OFFSET 0 -3.8 0
                          CHANNELS 6 Xposition Yposition Zposition Zrotation Xrotation Yrotation
                          JOINT LeftHandRing3
                          {
                            OFFSET 0 -3.4 0
                            CHANNELS 6 Xposition Yposition Zposition Zrotation Xrotation Yrotation
                            End Site
                            {
                              OFFSET 0 -2.6 0
                            }
                          }
                        }
                      }
                    }
                    JOINT LeftHandPinky
                    {
                      OFFSET -0.75 -1.75 -1.85
                      CHANNELS 6 Xposition Yposition Zposition Zrotation Xrotation Yrotation
                      JOINT LeftHandPinky1
                      {
                        OFFSET 0 -7.15 -1
                        CHANNELS 6 Xposition Yposition Zposition Zrotation Xrotation Yrotation
                        JOINT LeftHandPinky2
                        {
                          OFFSET 0 -3 0
                          CHANNELS 6 Xposition Yposition Zposition Zrotation Xrotation Yrotation
                          JOINT LeftHandPinky3
                          {
                            OFFSET 0 -2.35 0
                            CHANNELS 6 Xposition Yposition Zposition Zrotation Xrotation Yrotation
                            End Site
                            {
                              OFFSET 0 -2.1 0
                            }
                          }
                        }
                      }
                    }
                  }
                }
              }
            }
          }
          JOINT RightShoulder
          {
            OFFSET -5 17 0
            CHANNELS 6 Xposition Yposition Zposition Zrotation Xrotation Yrotation
            JOINT RightShoulder2
            {
              OFFSET -6.45 0 0
              CHANNELS 6 Xposition Yposition Zposition Zrotation Xrotation Yrotation
              JOINT RightArm
              {
                OFFSET -6.45 0 0
                CHANNELS 6 Xposition Yposition Zposition Zrotation Xrotation Yrotation
                JOINT RightForeArm
                {
                  OFFSET 0 -32.4 -2
                  CHANNELS 6 Xposition Yposition Zposition Zrotation Xrotation Yrotation
                  JOINT RightHand
                  {
                    OFFSET 0 -25.65 2
                    CHANNELS 6 Xposition Yposition Zposition Zrotation Xrotation Yrotation
                    JOINT RightHandThumb1
                    {
                      OFFSET 0.5 -1.5 2.65
                      CHANNELS 6 Xposition Yposition Zposition Zrotation Xrotation Yrotation
                      JOINT RightHandThumb2
                      {
                        OFFSET 0 -3.8 3.7
                        CHANNELS 6 Xposition Yposition Zposition Zrotation Xrotation Yrotation
                        JOINT RightHandThumb3
                        {
                          OFFSET 0 -3 2.7
                          CHANNELS 6 Xposition Yposition Zposition Zrotation Xrotation Yrotation
                          End Site
                          {
                            OFFSET 0 -2.3 1.8
                          }
                        }
                      }
                    }
                    JOINT RightHandIndex
                    {
                      OFFSET 0 -1.9 1.6
                      CHANNELS 6 Xposition Yposition Zposition Zrotation Xrotation Yrotation
                      JOINT RightHandIndex1
                      {
                        OFFSET 0 -8.3 1.9
                        CHANNELS 6 Xposition Yposition Zposition Zrotation Xrotation Yrotation
                        JOINT RightHandIndex2
                        {
                          OFFSET 0 -4.5 0
                          CHANNELS 6 Xposition Yposition Zposition Zrotation Xrotation Yrotation
                          JOINT RightHandIndex3
                          {
                            OFFSET 0 -3.4 0
                            CHANNELS 6 Xposition Yposition Zposition Zrotation Xrotation Yrotation
                            End Site
                            {
                              OFFSET 0 -2.6 0
                            }
                          }
                        }
                      }
                    }
                    JOINT RightHandMiddle
                    {
                      OFFSET 0.25 -2.2 0.4
                      CHANNELS 6 Xposition Yposition Zposition Zrotation Xrotation Yrotation
                      JOINT RightHandMiddle1
                      {
                        OFFSET 0 -8.3 1
                        CHANNELS 6 Xposition Yposition Zposition Zrotation Xrotation Yrotation
                        JOINT RightHandMiddle2
                        {
                          OFFSET 0 -4.65 0
                          CHANNELS 6 Xposition Yposition Zposition Zrotation Xrotation Yrotation
                          JOINT RightHandMiddle3
                          {
                            OFFSET 0 -3.3 0
                            CHANNELS 6 Xposition Yposition Zposition Zrotation Xrotation Yrotation
                            End Site
                            {
                              OFFSET 0 -2.7 0
                            }
                          }
                        }
                      }
                    }
                    JOINT RightHandRing
                    {
                      OFFSET 0.5 -2.15 -0.8
                      CHANNELS 6 Xposition Yposition Zposition Zrotation Xrotation Yrotation
                      JOINT RightHandRing1
                      {
                        OFFSET 0 -7.75 -0.2
                        CHANNELS 6 Xposition Yposition Zposition Zrotation Xrotation Yrotation
                        JOINT RightHandRing2
                        {
                          OFFSET 0 -3.8 0
                          CHANNELS 6 Xposition Yposition Zposition Zrotation Xrotation Yrotation
                          JOINT RightHandRing3
                          {
                            OFFSET 0 -3.4 0
                            CHANNELS 6 Xposition Yposition Zposition Zrotation Xrotation Yrotation
                            End Site
                            {
                              OFFSET 0 -2.6 0
                            }
                          }
                        }
                      }
                    }
                    JOINT RightHandPinky
                    {
                      OFFSET 0.75 -1.75 -1.85
                      CHANNELS 6 Xposition Yposition Zposition Zrotation Xrotation Yrotation
                      JOINT RightHandPinky1
                      {
                        OFFSET 0 -7.15 -1
                        CHANNELS 6 Xposition Yposition Zposition Zrotation Xrotation Yrotation
                        JOINT RightHandPinky2
                        {
                          OFFSET 0 -3 0
                          CHANNELS 6 Xposition Yposition Zposition Zrotation Xrotation Yrotation
                          JOINT RightHandPinky3
                          {
                            OFFSET 0 -2.35 0
                            CHANNELS 6 Xposition Yposition Zposition Zrotation Xrotation Yrotation
                            End Site
                            {
                              OFFSET 0 -2.1 0
                            }
                          }
                        }
                      }
                    }
                  }
                }
              }
            }
          }
        }
      }
    }
  }
  JOINT LeftUpLeg
  {
    OFFSET 8 0 0
    CHANNELS 6 Xposition Yposition Zposition Zrotation Xrotation Yrotation
    JOINT LeftLeg
    {
      OFFSET 0 -45 -1
      CHANNELS 6 Xposition Yposition Zposition Zrotation Xrotation Yrotation
      JOINT LeftFoot
      {
        OFFSET 0 -41 -2
        CHANNELS 6 Xposition Yposition Zposition Zrotation Xrotation Yrotation
        JOINT LeftToeBase
        {
          OFFSET 0 -7.5 12.5
          CHANNELS 6 Xposition Yposition Zposition Zrotation Xrotation Yrotation
          JOINT LeftFootToe
          {
            OFFSET 0 0 4
            CHANNELS 6 Xposition Yposition Zposition Zrotation Xrotation Yrotation
            End Site
            {
              OFFSET 0 0 0
            }
          }
        }
      }
    }
  }
  JOINT RightUpLeg
  {
    OFFSET -8 0 0
    CHANNELS 6 Xposition Yposition Zposition Zrotation Xrotation Yrotation
    JOINT RightLeg
    {
      OFFSET 0 -45 -1
      CHANNELS 6 Xposition Yposition Zposition Zrotation Xrotation Yrotation
      JOINT RightFoot
      {
        OFFSET 0 -41 -2
        CHANNELS 6 Xposition Yposition Zposition Zrotation Xrotation Yrotation
        JOINT RightToeBase
        {
          OFFSET 0 -7.5 12.5
          CHANNELS 6 Xposition Yposition Zposition Zrotation Xrotation Yrotation
          JOINT RightFootToe
          {
            OFFSET 0 0 4
            CHANNELS 6 Xposition Yposition Zposition Zrotation Xrotation Yrotation
            End Site
            {
              OFFSET 0 0 0
            }
          }
        }
      }
    }
  }
}
MOTION
Frames:	3
Frame Time:	0.0111111
-387.258 93.2173 1385.03 -8.06857 -7.5196 157.035 5.68434e-14 8 0 5.63184 17.185 -1.87071 -5.68434e-14 8 0 0.241616 6.05945 -0.812476 0 8 -4.54747e-13 0.10996 3.0323 -0.402756 5.68434e-14 8 2.27374e-13 0.109788 3.02798 -0.402174 5.68434e-14 17 0 1.16044 3.1437 -5.56393 -5.68434e-14 10.8 0 3.1928 7.14629 -13.1548 5 17 0 -5.64262 -1.62228 -2.65632 6.45 -1.13687e-13 0 -0.734163 -0.0193288 3.41106 6.45 -2.27374e-13 -4.54747e-13 27.7105 -9.20226 27.77 2.84217e-14 -32.4 -2 -121.319 -59.6386 173.07 0 -25.65 2 7.77717 10.4478 20.7452 -0.5 -1.5 2.65 -0.226919 -61.7568 150.611 1.13687e-13 -3.8 3.7 -0.076006 38.385 0.0720991 -1.13687e-13 -3 2.7 -0.0428001 21.2524 0.0837973 0 -1.9 1.6 3.18055e-15 -3.18055e-15 5.56597e-15 2.84217e-14 -8.3 1.9 -81.0783 9.60875 11.098 0 -4.5 2.27374e-13 -28.4716 0.000966984 0.00496399 -2.27374e-13 -3.4 -2.84217e-14 -21.1699 0.00310011 0.00184811 -0.25 -2.2 0.4 3.18055e-15 -3.18055e-15 5.56597e-15 1.42109e-13 -8.3 1 -72.6296 11.8244 12.4778 0 -4.65 -1.42109e-13 -50.2887 -0.00727445 0.00775803 0 -3.3 2.84217e-14 -90.0002 -1.01778e-13 8.42847e-14 -0.5 -2.15 -0.8 3.18055e-15 -3.18055e-15 5.56597e-15 0 -7.75 -0.2 -88.2191 0.0309572 12.556 0 -3.8 -8.52651e-14 -16.6207 -0.00353826 0.00284397 2.27374e-13 -3.4 0 -90.0002 0.00066049 -0.000497123 -0.75 -1.75 -1.85 3.18055e-15 -3.18055e-15 5.56597e-15 -1.13687e-13 -7.15 -1 -62.3086 8.51961 10.0755 2.27374e-13 -3 8.52651e-14 -61.2433 -0.037958 0.00409548 2.27374e-13 -2.35 -2.84217e-14 -90.0002 -1.97194e-13 2.2741e-13 -5 17 2.27374e-13 1.38793 -0.264805 0.0375488 -6.45 -1.13687e-13 0 -1.35904 0.226512 -4.46536 -6.45 1.13687e-13 0 -43.0964 -10.0748 -17.9662 0 -32.4 -2 -141.679 -73.0085 -142.837 -1.13687e-13 -25.65 2 -12.8077 -8.73413 -7.41984 0.5 -1.5 2.65 2.95539 17.3861 21.7925 0 -3.8 3.7 1.95046 6.96799 -0.518378 -2.84217e-13 -3 2.7 0.353677 28.7506 -0.249124 2.27374e-13 -1.9 1.6 -9.54166e-15 1.59028e-15 7.95139e-15 -1.13687e-13 -8.3 1.9 4.74331 17.6594 -0.926399 0 -4.5 5.68434e-14 9.60956 0.0269768 -0.0332481 1.7053e-13 -3.4 -1.13687e-13 8.45309 0.0164761 -0.0283869 0.25 -2.2 0.4 -9.54166e-15 1.59028e-15 7.95139e-15 0 -8.3 1 4.35707 5.79092 -0.365636 1.13687e-13 -4.65 -5.68434e-14 9.54166e-15 1.59028e-15 -0 -1.13687e-13 -3.3 0 6.36111e-15 0 1.11319e-14 0.5 -2.15 -0.8 -9.54166e-15 1.59028e-15 7.95139e-15 0 -7.75 -0.2 25.3315 0.503222 -0.880666 2.84217e-14 -3.8 -5.68434e-14 35.5071 -0.0639151 -0.142094 0 -3.4 2.84217e-14 25.3867 -0.0712547 -0.060454 0.75 -1.75 -1.85 -9.54166e-15 1.59028e-15 7.95139e-15 0 -7.15 -1 67.7962 -8.79567 -0.462202 1.13687e-13 -3 -2.84217e-14 26.9503 -0.216969 -0.114394 0 -2.35 2.84217e-14 20.2152 -0.149028 -0.0212906 8 5.68434e-14 2.27374e-13 -1.54426 -15.2265 -29.5001 1.13687e-13 -45 -1 -0.287183 13.4896 4.04305 2.27374e-13 -41 -2 -8.2221 -3.32379 23.9068 5.68434e-14 -7.5 12.5 3.97569e-16 -4.09984 -0 -5.68434e-14 0 4 -0.730552 4.18219 40.9977 -8 2.84217e-14 -2.27374e-13 -0.0368648 -18.8981 -2.85126 0 -45 -1 0.0652116 12.5604 -1.15468 1.13687e-13 -41 -2 -4.91357 -4.03243 12.4544 -5.68434e-14 -7.5 12.5 -1.28002e-18 -0.00491774 3.18055e-15 -5.68434e-14 1.38778e-17 4 9.575 -1.06293 2.12085 
-387.315 93.2199 1385.03 -8.01877 -7.34634 157.14 2.27374e-13 8 2.27374e-13 5.54533 17.2448 -1.91208 -5.68434e-14 8 0 0.26087 6.03942 -0.81346 5.68434e-14 8 -2.27374e-13 0.119641 3.02231 -0.403665 1.13687e-13 8 2.27374e-13 0.119455 3.01802 -0.403083 1.7053e-13 17 2.27374e-13 1.2243 3.14004 -5.57743 -5.68434e-14 10.8 0 3.34264 7.12737 -13.1918 5 17 0 -5.51631 -1.54679 -2.6902 6.45 -2.27374e-13 0 -0.725678 -0.0127853 3.41056 6.45 -1.13687e-13 -2.27374e-13 27.7105 -9.20226 27.77 5.68434e-14 -32.4 -2 -120.239 -59.8013 174.514 0 -25.65 2 7.77717 10.4478 20.7452 -0.5 -1.5 2.65 0.195043 -62.7954 151.128 1.13687e-13 -3.8 3.7 -0.0913204 37.4197 0.0747705 1.13687e-13 -3 2.7 -0.066379 20.1302 0.0996352 0 -1.9 1.6 4.77083e-15 -3.18055e-15 2.38542e-15 0 -8.3 1.9 -80.3797 9.86125 11.1563 2.27374e-13 -4.5 1.98952e-13 -27.7762 0.00112282 0.012681 -2.27374e-13 -3.4 0 -20.7501 0.00311261 0.00195045 -0.25 -2.2 0.4 4.77083e-15 -3.18055e-15 2.38542e-15 5.68434e-14 -8.3 1 -72.2478 12.0921 12.5851 2.27374e-13 -4.65 -8.52651e-14 -49.3369 -0.0137643 0.0184402 -2.27374e-13 -3.3 8.52651e-14 -90.0002 -6.12257e-14 4.6118e-14 -0.5 -2.15 -0.8 4.77083e-15 -3.18055e-15 2.38542e-15 -2.84217e-14 -7.75 -0.2 -88.4486 0.175609 12.6456 0 -3.8 -1.13687e-13 -16.8944 -0.003502 0.00298277 0 -3.4 -2.84217e-14 -90.0002 0.000668487 -0.000490748 -0.75 -1.75 -1.85 4.77083e-15 -3.18055e-15 2.38542e-15 -1.13687e-13 -7.15 -1 -63.935 7.76441 10.0255 2.27374e-13 -3 -5.68434e-14 -60.1138 -0.047927 0.0149442 2.27374e-13 -2.35 -2.84217e-14 -90.0002 -1.9799e-13 2.22639e-13 -5 17 2.27374e-13 1.4688 -0.291113 -0.0338052 -6.45 0 0 -1.36301 0.225649 -4.4514 -6.45 0 0 -42.4141 -9.5144 -17.1817 1.42109e-13 -32.4 -2 -135.536 -74.5411 -136.537 -1.7053e-13 -25.65 2 -11.9971 -9.13524 -5.97376 0.5 -1.5 2.65 2.54063 17.3783 21.1623 5.68434e-14 -3.8 3.7 1.85483 8.8225 -0.499788 -2.84217e-13 -3 2.7 0.407787 26.5287 -0.275866 3.41061e-13 -1.9 1.6 -9.54166e-15 -1.59028e-15 7.95139e-15 0 -8.3 1.9 5.04805 18.1701 -0.998033 0 -4.5 -5.68434e-14 9.83498 0.0618542 -0.132534 2.27374e-13 -3.4 -5.68434e-14 8.61838 0.0309307 -0.108424 0.25 -2.2 0.4 -9.54166e-15 -1.59028e-15 7.95139e-15 -1.13687e-13 -8.3 1 4.60497 6.05186 -0.429896 2.27374e-13 -4.65 0 1.90833e-14 -6.36111e-15 -4.77083e-15 0 -3.3 -5.68434e-14 6.36111e-15 -3.18055e-15 3.18055e-15 0.5 -2.15 -0.8 -9.54166e-15 -1.59028e-15 7.95139e-15 0 -7.75 -0.2 25.1136 0.523734 -0.934678 -2.84217e-14 -3.8 0 36.2867 -0.0567401 -0.139352 0 -3.4 -2.84217e-14 25.8534 -0.0668496 -0.0606316 0.75 -1.75 -1.85 -9.54166e-15 -1.59028e-15 7.95139e-15 0 -7.15 -1 67.5304 -9.09411 -0.299305 0 -3 0 28.431 -0.195264 -0.106997 -2.27374e-13 -2.35 0 21.1216 -0.134418 -0.0221237 8 0 4.54747e-13 -1.6078 -15.0529 -29.5359 2.27374e-13 -45 -1 -0.284337 13.4373 4.02564 0 -41 -2 -8.19475 -3.37598 23.9253 0 -7.5 12.5 6.04261e-16 -3.71819 3.18726e-15 -1.13687e-13 0 4 -0.770051 3.88335 41.2302 -8 0 2.27374e-13 -0.138707 -18.7553 -3.00384 0 -45 -1 0.0695203 12.6257 -1.16842 1.13687e-13 -41 -2 -4.87654 -4.06368 12.4419 -5.68434e-14 -7.5 12.5 -9.88827e-19 -0.00491774 3.18055e-15 -5.68434e-14 1.38778e-17 4 9.55787 -1.06171 2.1209 
-387.383 93.2215 1385.03 -7.96609 -7.16434 157.228 0 8 0 5.45938 17.3085 -1.9495 5.68434e-14 8 2.27374e-13 0.284373 6.0262 -0.813753 5.68434e-14 8 -4.54747e-13 0.13146 3.01572 -0.404379 5.68434e-14 8 0 0.131269 3.01147 -0.403798 1.7053e-13 17 0 1.2879 3.12885 -5.58549 -5.68434e-14 10.8 0 3.49016 7.09119 -13.2152 5 17 0 -5.40237 -1.48186 -2.73689 6.45 -1.13687e-13 0 -0.715745 -0.00820348 3.41121 6.45 -2.27374e-13 -2.27374e-13 27.7105 -9.20226 27.77 0 -32.4 -2 -119.136 -59.8876 175.974 -5.68434e-14 -25.65 2 7.77717 10.4478 20.7452 -0.5 -1.5 2.65 0.312704 -63.7399 151.412 2.27374e-13 -3.8 3.7 -0.104617 36.3668 0.0754659 0 -3 2.7 -0.0695565 19.2988 0.0899254 -2.84217e-14 -1.9 1.6 -0 0 1.59028e-15 0 -8.3 1.9 -79.6246 10.1236 11.2069 2.27374e-13 -4.5 2.27374e-13 -27.2955 0.00127974 0.0106329 -2.27374e-13 -3.4 2.84217e-14 -20.4607 0.00312555 0.00200068 -0.25 -2.2 0.4 -0 0 1.59028e-15 1.13687e-13 -8.3 1 -71.8037 12.3913 12.6982 2.27374e-13 -4.65 -1.13687e-13 -48.7536 -0.0138459 0.0180949 0 -3.3 1.13687e-13 -90.0002 -4.53229e-14 3.85642e-14 -0.5 -2.15 -0.8 -0 0 1.59028e-15 0 -7.75 -0.2 -88.6154 0.295024 12.7152 0 -3.8 -1.13687e-13 -17.1232 -0.00346184 0.0031211 2.27374e-13 -3.4 0 -90.0002 0.000676252 -0.000484345 -0.75 -1.75 -1.85 -0 0 1.59028e-15 -1.42109e-13 -7.15 -1 -65.2867 7.06496 9.92121 0 -3 2.84217e-14 -59.3116 -0.0621525 0.0254032 0 -2.35 2.84217e-14 -90.0002 -1.95604e-13 2.09917e-13 -5 17 0 1.53503 -0.335873 -0.140823 -6.45 -1.13687e-13 -2.27374e-13 -1.36439 0.224749 -4.42928 -6.45 0 0 -41.8119 -9.04716 -16.2533 5.68434e-14 -32.4 -2 -127.319 -76.0931 -128.102 -1.7053e-13 -25.65 2 -11.1524 -9.55986 -3.93345 0.5 -1.5 2.65 2.15094 16.9044 19.9607 0 -3.8 3.7 1.72478 10.9006 -0.476727 -2.27374e-13 -3 2.7 0.419484 24.4304 -0.267931 1.13687e-13 -1.9 1.6 -3.18055e-15 -3.18055e-15 3.18055e-15 0 -8.3 1.9 5.38297 18.7272 -1.08891 -1.13687e-13 -4.5 -1.13687e-13 10.3834 0.0874184 -0.168832 2.27374e-13 -3.4 0 9.03679 0.0463924 -0.139965 0.25 -2.2 0.4 -3.18055e-15 -3.18055e-15 3.18055e-15 0 -8.3 1 4.9752 6.4498 -0.517425 2.27374e-13 -4.65 5.68434e-14 3.18055e-15 -3.18055e-15 -0 0 -3.3 -5.68434e-14 -3.18055e-15 0 7.95139e-15 0.5 -2.15 -0.8 -3.18055e-15 -3.18055e-15 3.18055e-15 0 -7.75 -0.2 25.0954 0.701155 -1.04739 2.84217e-14 -3.8 5.68434e-14 37.0876 -0.045425 -0.135502 1.13687e-13 -3.4 0 26.3331 -0.0602023 -0.0611237 0.75 -1.75 -1.85 -3.18055e-15 -3.18055e-15 3.18055e-15 -1.13687e-13 -7.15 -1 67.2021 -9.40898 -0.0919782 1.13687e-13 -3 -2.84217e-14 29.763 -0.166355 -0.106403 -2.27374e-13 -2.35 0 21.9329 -0.11757 -0.0229932 8 2.84217e-14 4.54747e-13 -1.68419 -14.8725 -29.5901 2.27374e-13 -45 -1 -0.282576 13.4005 4.01023 0 -41 -2 -8.15274 -3.44775 23.9418 0 -7.5 12.5 -4.28958e-16 -3.29463 6.37164e-15 -5.68434e-14 -1.42109e-14 4 -0.817552 3.54721 41.4886 -8 -2.84217e-14 0 -0.247611 -18.6122 -3.16038 5.68434e-14 -45 -1 0.0739591 12.7036 -1.18146 1.13687e-13 -41 -2 -4.83234 -4.09911 12.4554 0 -7.5 12.5 -2.5479e-19 -0.00491774 -6.36111e-15 -5.68434e-14 0 4 9.5373 -1.06162 2.12421 
